<svg width="1200" height="300" viewBox="0 0 1200 300" xmlns="http://www.w3.org/2000/svg"><rect width="1200" height="300" rx="28" fill="#070706"/><rect x="1" y="1" width="1198" height="298" rx="27" fill="none" stroke="#d8b765" stroke-opacity=".24"/><text x="48" y="58" fill="#f6f0df" font-family="Arial" font-size="30" font-weight="700">Activity Signal</text><text x="48" y="88" fill="#9b927d" font-family="Arial" font-size="16">AI systems · automation · business operations</text><g fill="#11100d" stroke="#d8b765" stroke-opacity=".18"><rect x="48" y="124" width="250" height="92" rx="18"/><rect x="326" y="124" width="250" height="92" rx="18"/><rect x="604" y="124" width="250" height="92" rx="18"/><rect x="882" y="124" width="270" height="92" rx="18"/></g><g font-family="Arial"><text x="72" y="158" fill="#d8b765" font-size="16">Agents</text><text x="72" y="196" fill="#f6f0df" font-size="32" font-weight="700">AI</text><text x="350" y="158" fill="#d8b765" font-size="16">Systems</text><text x="350" y="196" fill="#f6f0df" font-size="32" font-weight="700">CRM</text><text x="628" y="158" fill="#d8b765" font-size="16">Memory</text><text x="628" y="196" fill="#f6f0df" font-size="32" font-weight="700">Obsidian</text><text x="906" y="158" fill="#d8b765" font-size="16">Content</text><text x="906" y="196" fill="#f6f0df" font-size="32" font-weight="700">Remotion</text></g><g fill="#d8b765"><rect x="48" y="250" width="130" height="10" rx="5"/><rect x="194" y="250" width="80" height="10" rx="5"/><rect x="290" y="250" width="180" height="10" rx="5"/><rect x="486" y="250" width="110" height="10" rx="5"/><rect x="612" y="250" width="220" height="10" rx="5"/><rect x="848" y="250" width="150" height="10" rx="5"/><rect x="1014" y="250" width="138" height="10" rx="5"/></g></svg>