<svg width="1600" height="900" viewBox="0 0 1600 900" xmlns="http://www.w3.org/2000/svg"><defs><linearGradient id="bg" x1="0" y1="0" x2="1" y2="1"><stop offset="0" stop-color="#070706"/><stop offset="1" stop-color="#020202"/></linearGradient><linearGradient id="gold" x1="0" y1="0" x2="1" y2="0"><stop offset="0" stop-color="#f6df9a"/><stop offset="0.5" stop-color="#d8b765"/><stop offset="1" stop-color="#8f6b22"/></linearGradient><radialGradient id="flare" cx="50%" cy="50%" r="50%"><stop offset="0" stop-color="#f6df9a" stop-opacity="0.8"/><stop offset="1" stop-color="#f6df9a" stop-opacity="0"/></radialGradient><filter id="blur" x="-50%" y="-50%" width="200%" height="200%"><feGaussianBlur stdDeviation="28"/></filter></defs><rect width="1600" height="900" fill="url(#bg)"/><rect width="1600" height="900" fill="#000" opacity="0.28"/><circle cx="1540" cy="120" r="170" fill="#d8b765" opacity="0.6" filter="url(#blur)"/><circle cx="20" cy="780" r="220" fill="#d8b765" opacity="0.28" filter="url(#blur)"/><path d="M0 760C120 710 170 690 250 650" stroke="#d8b765" stroke-opacity="0.28" stroke-width="6"/><g transform="translate(290 300)"><text x="0" y="0" fill="#d8b765" font-family="Inter,Arial,sans-serif" font-size="44" font-weight="500" letter-spacing="7">Agentic Era</text><text x="372" y="0" fill="#d8b765" font-family="Inter,Arial,sans-serif" font-size="52" font-weight="300">↗</text><line x1="430" y1="-12" x2="610" y2="-12" stroke="url(#gold)" stroke-width="3" opacity="0.9"/></g><g transform="translate(260 365)"><rect x="0" y="0" width="1080" height="185" rx="42" fill="#060606" fill-opacity="0.78" stroke="url(#gold)" stroke-width="2"/><ellipse cx="540" cy="0" rx="85" ry="10" fill="url(#flare)"/><ellipse cx="540" cy="185" rx="85" ry="10" fill="url(#flare)"/><text x="540" y="112" text-anchor="middle" fill="#f4f4f1" font-family="Inter,Arial,sans-serif" font-size="74" font-weight="900" letter-spacing="-1">IA, Agentes, Negocios y Futuro</text></g><g transform="translate(430 610)"><line x1="0" y1="14" x2="110" y2="14" stroke="#d8b765" stroke-width="2" opacity="0.65"/><line x1="650" y1="14" x2="760" y2="14" stroke="#d8b765" stroke-width="2" opacity="0.65"/><text x="380" y="24" text-anchor="middle" fill="#d8b765" font-family="Inter,Arial,sans-serif" font-size="28" font-weight="500" letter-spacing="6">Syka - Lab | Sikora Juan Pablo</text></g><g transform="translate(640 705)"><rect x="0" y="0" width="42" height="42" rx="12" fill="none" stroke="#d8b765" stroke-width="4"/><circle cx="31" cy="11" r="4" fill="#d8b765"/><circle cx="21" cy="21" r="10" fill="none" stroke="#d8b765" stroke-width="4"/><text x="62" y="31" fill="#d8b765" font-family="Inter,Arial,sans-serif" font-size="28" font-weight="500" letter-spacing="3">@champisikora</text></g></svg>