<svg width="1280" height="420" viewBox="0 0 1280 420" fill="none" xmlns="http://www.w3.org/2000/svg">
  <defs>
    <radialGradient id="g1" cx="50%" cy="18%" r="75%">
      <stop offset="0%" stop-color="#123B2E" stop-opacity="0.95"/>
      <stop offset="42%" stop-color="#07120F" stop-opacity="0.98"/>
      <stop offset="100%" stop-color="#050506"/>
    </radialGradient>
    <linearGradient id="gold" x1="0" y1="0" x2="1" y2="0">
      <stop offset="0%" stop-color="#8B6B20"/>
      <stop offset="35%" stop-color="#F3D77A"/>
      <stop offset="70%" stop-color="#C9A24A"/>
      <stop offset="100%" stop-color="#6E551A"/>
    </linearGradient>
    <filter id="glow" x="-60%" y="-60%" width="220%" height="220%">
      <feGaussianBlur stdDeviation="9" result="blur"/>
      <feColorMatrix in="blur" type="matrix" values="1 0 0 0 0.78 0 1 0 0 0.55 0 0 1 0 0.14 0 0 0 0.9 0" result="goldBlur"/>
      <feMerge><feMergeNode in="goldBlur"/><feMergeNode in="SourceGraphic"/></feMerge>
    </filter>
    <filter id="softGreen" x="-70%" y="-70%" width="240%" height="240%">
      <feGaussianBlur stdDeviation="18" result="blur"/>
      <feColorMatrix in="blur" type="matrix" values="0 0 0 0 0 0 0.7 0 0 0.33 0 0 0.55 0 0.25 0 0 0 0.8 0"/>
      <feMerge><feMergeNode/><feMergeNode in="SourceGraphic"/></feMerge>
    </filter>
    <pattern id="grid" width="48" height="48" patternUnits="userSpaceOnUse">
      <path d="M48 0H0V48" stroke="#F2EFE7" stroke-opacity="0.055"/>
    </pattern>
  </defs>
  <rect width="1280" height="420" rx="34" fill="url(#g1)"/>
  <rect x="1" y="1" width="1278" height="418" rx="33" stroke="#C9A24A" stroke-opacity="0.38"/>
  <rect width="1280" height="420" rx="34" fill="url(#grid)"/>
  <circle cx="1010" cy="82" r="170" fill="#00563F" opacity="0.20" filter="url(#softGreen)"/>
  <circle cx="290" cy="320" r="210" fill="#C9A24A" opacity="0.08" filter="url(#glow)"/>
  <g opacity="0.9">
    <path d="M885 115C934 82 994 83 1043 119C1092 155 1158 146 1198 105" stroke="#C9A24A" stroke-width="2" stroke-opacity="0.50"/>
    <path d="M890 155C944 125 995 137 1038 168C1086 202 1146 198 1197 163" stroke="#00563F" stroke-width="2" stroke-opacity="0.75"/>
    <circle cx="885" cy="115" r="4" fill="#C9A24A"/><circle cx="1043" cy="119" r="4" fill="#C9A24A"/><circle cx="1198" cy="105" r="4" fill="#C9A24A"/>
    <circle cx="890" cy="155" r="4" fill="#00563F"/><circle cx="1038" cy="168" r="4" fill="#00563F"/><circle cx="1197" cy="163" r="4" fill="#00563F"/>
  </g>
  <g transform="translate(78 76)">
    <rect x="0" y="0" width="106" height="106" rx="26" fill="#050506" stroke="#C9A24A" stroke-opacity="0.70"/>
    <text x="53" y="68" text-anchor="middle" fill="url(#gold)" font-family="Inter, Arial, sans-serif" font-size="42" font-weight="900" filter="url(#glow)">SJ</text>
  </g>
  <text x="78" y="230" fill="#F2EFE7" font-family="Inter, Arial, sans-serif" font-size="58" font-weight="900" letter-spacing="-1.8">Juan Pablo Sikora</text>
  <text x="80" y="278" fill="url(#gold)" font-family="Inter, Arial, sans-serif" font-size="28" font-weight="800" filter="url(#glow)">Building AI Systems for Creators, Consultants, Digital Businesses &amp; PyMEs</text>
  <text x="82" y="323" fill="#F2EFE7" fill-opacity="0.78" font-family="Inter, Arial, sans-serif" font-size="20" font-weight="500">AI Systems Builder · Founder / Automation Architect · Agentic Era</text>
  <g transform="translate(82 354)">
    <rect x="0" y="0" width="176" height="34" rx="17" fill="#050506" stroke="#C9A24A" stroke-opacity="0.45"/>
    <text x="88" y="23" text-anchor="middle" fill="#C9A24A" font-family="Inter, Arial, sans-serif" font-size="13" font-weight="800">AI AGENTS</text>
    <rect x="192" y="0" width="170" height="34" rx="17" fill="#050506" stroke="#00563F" stroke-opacity="0.8"/>
    <text x="277" y="23" text-anchor="middle" fill="#F2EFE7" font-family="Inter, Arial, sans-serif" font-size="13" font-weight="800">AUTOMATION</text>
    <rect x="378" y="0" width="184" height="34" rx="17" fill="#050506" stroke="#C9A24A" stroke-opacity="0.45"/>
    <text x="470" y="23" text-anchor="middle" fill="#C9A24A" font-family="Inter, Arial, sans-serif" font-size="13" font-weight="800">SECOND BRAIN</text>
  </g>
</svg>
