<svg width="1280" height="420" viewBox="0 0 1280 420" xmlns="http://www.w3.org/2000/svg">
<defs>
<linearGradient id="bg" x1="0" y1="0" x2="1" y2="1"><stop stop-color="#11100d"/><stop offset="0.45" stop-color="#070706"/><stop offset="1" stop-color="#020202"/></linearGradient>
<linearGradient id="gold" x1="0" y1="0" x2="1" y2="0"><stop stop-color="#f6df9a"/><stop offset="0.55" stop-color="#d8b765"/><stop offset="1" stop-color="#8f6b22"/></linearGradient>
</defs>
<rect width="1280" height="420" rx="34" fill="url(#bg)"/>
<rect x="1" y="1" width="1278" height="418" rx="33" fill="none" stroke="#d8b765" stroke-opacity=".28"/>
<circle cx="230" cy="70" r="190" fill="#d8b765" opacity=".09"/>
<circle cx="1100" cy="350" r="240" fill="#d8b765" opacity=".06"/>
<g opacity=".18" stroke="#f6f0df"><path d="M0 70H1280M0 140H1280M0 210H1280M0 280H1280M0 350H1280"/><path d="M80 0V420M160 0V420M240 0V420M320 0V420M400 0V420M480 0V420M560 0V420M640 0V420M720 0V420M800 0V420M880 0V420M960 0V420M1040 0V420M1120 0V420M1200 0V420"/></g>
<rect x="74" y="66" width="108" height="108" rx="26" fill="#070706" stroke="#d8b765" stroke-opacity=".52"/>
<text x="128" y="135" text-anchor="middle" font-family="Inter,Segoe UI,Arial" font-size="42" font-weight="900" fill="url(#gold)">SJ</text>
<text x="74" y="226" font-family="Inter,Segoe UI,Arial" font-size="58" font-weight="900" letter-spacing="-2" fill="#f6f0df">Juan Pablo Sikora</text>
<text x="76" y="276" font-family="Inter,Segoe UI,Arial" font-size="28" font-weight="800" fill="url(#gold)">Building AI Systems for Creators, Consultants, Digital Businesses &amp; PyMEs</text>
<text x="78" y="319" font-family="Inter,Segoe UI,Arial" font-size="19" font-weight="600" fill="#9b927d">AI Systems Builder · Founder / Automation Architect · Agentic Era</text>
<g font-family="Inter,Segoe UI,Arial" font-size="12" font-weight="900" fill="#f6df9a">
<rect x="78" y="354" width="170" height="34" rx="17" fill="#11100d" stroke="#d8b765" stroke-opacity=".24"/><text x="163" y="376" text-anchor="middle">AI AGENTS</text>
<rect x="264" y="354" width="180" height="34" rx="17" fill="#11100d" stroke="#d8b765" stroke-opacity=".24"/><text x="354" y="376" text-anchor="middle">AUTOMATION</text>
<rect x="460" y="354" width="190" height="34" rx="17" fill="#11100d" stroke="#d8b765" stroke-opacity=".24"/><text x="555" y="376" text-anchor="middle">SECOND BRAIN</text>
</g>
</svg>