<svg width="1200" height="300" viewBox="0 0 1200 300" xmlns="http://www.w3.org/2000/svg"><rect width="1200" height="300" rx="28" fill="#070706"/><rect x="1" y="1" width="1198" height="298" rx="27" fill="none" stroke="#d8b765" stroke-opacity=".24"/><text x="48" y="58" fill="#f6f0df" font-family="Arial" font-size="30" font-weight="700">Working With</text><text x="48" y="88" fill="#9b927d" font-family="Arial" font-size="16">tools and systems I use to build AI-powered workflows</text><g font-family="Arial"><rect x="48" y="126" width="250" height="108" rx="20" fill="#11100d" stroke="#d8b765" stroke-opacity=".18"/><circle cx="92" cy="180" r="24" fill="#f6f0df"/><text x="132" y="174" fill="#d8b765" font-size="18" font-weight="700">OpenAI</text><text x="132" y="199" fill="#9b927d" font-size="14">models · agents · APIs</text><rect x="326" y="126" width="250" height="108" rx="20" fill="#11100d" stroke="#d8b765" stroke-opacity=".18"/><path d="M370 156 L394 204 H346 Z" fill="#f6f0df"/><text x="410" y="174" fill="#d8b765" font-size="18" font-weight="700">Vercel</text><text x="410" y="199" fill="#9b927d" font-size="14">deployments · web apps</text><rect x="604" y="126" width="250" height="108" rx="20" fill="#11100d" stroke="#d8b765" stroke-opacity=".18"/><rect x="642" y="156" width="48" height="48" rx="12" fill="#d97757"/><text x="708" y="174" fill="#d8b765" font-size="18" font-weight="700">Claude Code</text><text x="708" y="199" fill="#9b927d" font-size="14">coding · refactors · CLI</text><rect x="882" y="126" width="270" height="108" rx="20" fill="#11100d" stroke="#d8b765" stroke-opacity=".18"/><rect x="920" y="156" width="48" height="48" rx="12" fill="#d8b765"/><text x="986" y="174" fill="#d8b765" font-size="18" font-weight="700">Hermes Agent</text><text x="986" y="199" fill="#9b927d" font-size="14">skills · memory · ops</text></g></svg>